<svg xmlns="http://www.w3.org/2000/svg" viewBox="0 0 172.05 88.51"><defs><style>.cls-1,.cls-2,.cls-3{fill:#fff;}.cls-2{font-size:19px;}.cls-2,.cls-3{font-family:AvantGardeLT-Bold, ITC Avant Garde Gothic LT;font-weight:700;}.cls-3{font-size:22.75px;}.cls-4{letter-spacing:-0.1em;}.cls-5{letter-spacing:0em;}</style></defs><title>Logo PTSP</title><g id="Layer_2" data-name="Layer 2"><g id="Layer_1-2" data-name="Layer 1"><polygon class="cls-1" points="44.26 14.6 44.26 31.62 44.25 31.62 42.89 32.59 41.87 33.32 40.86 34.04 40.86 34.05 40.85 34.05 39.49 35.02 38.13 35.99 37.45 36.47 37.1 36.72 36.08 37.45 34.72 38.42 34.05 38.9 33.36 39.39 32.34 40.12 31.32 40.85 30.64 41.34 30.64 34.53 31.31 34.05 32.34 33.32 33.35 32.59 34.05 32.09 34.72 31.61 36.08 30.64 37.1 29.91 37.45 29.66 37.45 16.54 34.05 14.11 33.36 13.62 30.64 11.67 28.6 10.22 27.24 9.25 23.83 6.81 20.43 9.24 19.06 10.22 17.03 11.67 14.3 13.62 13.62 14.1 10.22 16.53 9.52 17.03 6.81 18.97 6.81 76.84 9.53 74.9 10.22 74.41 11.33 73.62 13.62 71.98 14.05 71.67 14.3 71.49 14.74 71.18 17.03 69.54 18.14 68.75 18.82 68.27 19.06 68.09 20.43 67.11 20.43 12.65 23.83 10.22 27.24 12.66 27.24 69.05 26.21 69.79 23.83 71.49 20.43 73.92 19.06 74.9 17.03 76.35 14.3 78.3 13.62 78.78 10.22 81.21 9.52 81.71 6.81 83.65 4.76 85.11 3.41 86.07 0 88.51 0 17.03 3.41 14.59 4.77 13.62 6.81 12.16 9.53 10.22 10.22 9.73 13.62 7.3 14.3 6.81 17.03 4.86 19.06 3.41 20.43 2.43 23.83 0 27.24 2.44 28.6 3.41 30.64 4.87 33.36 6.81 34.05 7.3 37.45 9.73 38.13 10.22 40.86 12.17 42.89 13.62 44.26 14.6"/><text class="cls-2" transform="translate(52.45 45.91) scale(0.98 1)">PTSP ONLINE</text><text class="cls-3" transform="translate(51.77 68.88) scale(0.98 1)">PTUN <tspan class="cls-4" x="65.99" y="0">P</tspan><tspan class="cls-5" x="78.18" y="0">ALU</tspan></text></g></g></svg>